<?xml version="1.0" standalone="no"?>
<!DOCTYPE svg PUBLIC "-//W3C//DTD SVG 20010904//EN"
 "http://www.w3.org/TR/2001/REC-SVG-20010904/DTD/svg10.dtd">
<svg version="1.0" xmlns="http://www.w3.org/2000/svg"
 width="224.000000pt" height="127.000000pt" viewBox="0 0 224.000000 127.000000"
 preserveAspectRatio="xMidYMid meet">

<g transform="translate(0.000000,127.000000) scale(0.100000,-0.100000)"
fill="#000000" stroke="none">
<path d="M0 640 l0 -630 1110 0 1110 0 0 630 0 630 -1110 0 -1110 0 0 -630z
m2170 5 l0 -585 -1065 0 -1065 0 0 585 0 585 1065 0 1065 0 0 -585z"/>
<path d="M1403 872 c-51 -2 -63 -6 -63 -19 0 -13 3 -14 12 -5 7 7 20 12 30 12
16 0 18 -10 18 -79 0 -54 -4 -81 -12 -84 -7 -3 3 -5 22 -5 19 0 29 2 23 5 -9
3 -13 30 -13 84 0 72 2 79 20 79 10 0 24 -8 29 -17 8 -14 10 -15 11 -3 0 29
-15 35 -77 32z"/>
<path d="M158 864 c17 -8 17 -160 0 -167 -7 -3 3 -5 22 -5 19 0 29 2 23 5 -7
2 -13 20 -13 39 0 29 3 34 24 34 15 0 26 -7 29 -17 3 -10 5 0 5 22 0 22 -2 32
-5 23 -3 -11 -14 -18 -29 -18 -21 0 -24 4 -24 40 0 39 1 40 34 40 19 0 42 -8
51 -17 16 -16 17 -15 13 3 -3 16 -13 19 -73 21 -39 1 -64 0 -57 -3z"/>
<path d="M323 859 c13 -8 17 -24 17 -79 0 -55 -4 -71 -17 -79 -14 -8 -10 -10
22 -10 32 0 36 2 23 10 -14 8 -18 24 -18 79 0 55 4 71 18 79 13 8 9 10 -23 10
-32 0 -36 -2 -22 -10z"/>
<path d="M413 863 c14 -4 17 -16 17 -78 0 -60 -3 -76 -17 -84 -15 -8 -11 -10
17 -10 19 0 29 3 23 6 -9 3 -13 29 -13 81 l1 77 52 -82 c28 -46 55 -83 60 -83
4 0 7 38 7 84 0 58 4 86 13 89 6 3 -4 5 -23 5 -19 0 -29 -2 -22 -5 8 -3 12
-26 12 -66 l0 -62 -43 68 c-37 60 -45 67 -72 66 -17 -1 -22 -3 -12 -6z"/>
<path d="M618 863 c8 -3 12 -30 12 -83 0 -53 -4 -80 -12 -84 -7 -3 20 -5 61
-3 63 2 76 6 92 26 27 33 25 92 -4 119 -32 30 -43 28 -18 -4 47 -59 13 -134
-59 -134 l-40 0 0 79 0 80 38 4 c24 2 16 4 -23 5 -33 0 -54 -2 -47 -5z"/>
<path d="M928 864 c8 -4 12 -31 12 -84 0 -53 -4 -80 -12 -83 -7 -3 1 -5 17 -5
17 0 24 2 18 5 -9 3 -13 28 -13 76 1 68 2 70 15 47 8 -14 22 -46 30 -72 9 -26
20 -50 24 -53 9 -5 66 133 59 141 -3 2 -13 -17 -23 -43 -10 -27 -21 -52 -25
-56 -4 -5 -19 22 -32 60 -23 61 -28 68 -54 70 -16 1 -23 0 -16 -3z"/>
<path d="M1088 789 c4 -62 1 -83 -9 -90 -10 -6 -3 -8 21 -8 19 0 29 3 23 6
-17 6 -18 144 -1 161 9 9 6 12 -13 12 l-26 0 5 -81z"/>
<path d="M1200 786 c-18 -47 -38 -87 -44 -90 -6 -2 3 -5 19 -5 19 0 25 2 17 8
-10 6 -11 13 -1 34 10 22 19 27 46 27 27 0 35 -5 44 -27 7 -20 6 -28 -3 -35
-8 -5 0 -8 22 -8 20 0 30 4 23 8 -7 4 -25 43 -41 87 -16 43 -34 81 -39 82 -5
2 -25 -35 -43 -81z m55 12 c6 -25 5 -28 -19 -28 -29 0 -31 7 -14 45 13 29 23
23 33 -17z"/>
<path d="M1541 844 c-54 -46 -35 -133 34 -150 13 -3 30 -4 37 -1 7 3 1 6 -14
6 -33 1 -68 43 -68 81 0 36 34 78 68 83 l27 4 -27 2 c-16 0 -39 -10 -57 -25z"/>
<path d="M1643 862 c-8 -5 -6 -14 8 -31 19 -23 24 -13 11 21 -4 10 -12 14 -19
10z"/>
<path d="M1718 863 c8 -3 12 -30 12 -83 0 -53 -4 -80 -12 -83 -7 -3 3 -5 22
-5 19 0 29 2 23 5 -8 2 -13 22 -13 44 l0 39 50 0 50 0 0 -39 c0 -22 -5 -42
-12 -44 -7 -3 5 -5 27 -5 22 0 32 2 23 5 -15 4 -18 17 -18 83 0 66 3 79 18 83
9 3 -1 5 -23 5 -22 0 -34 -2 -27 -5 6 -2 12 -20 12 -39 l0 -34 -50 0 -50 0 0
34 c0 19 6 37 13 39 6 3 -4 5 -23 5 -19 0 -29 -2 -22 -5z"/>
<path d="M1646 715 c-11 -8 -15 -15 -9 -15 6 0 16 7 23 15 16 19 11 19 -14 0z"/>
</g>
</svg>
