<?xml version="1.0" encoding="iso-8859-1"?>
<!-- Generator: Adobe Illustrator 19.0.0, SVG Export Plug-In . SVG Version: 6.00 Build 0)  -->
<svg version="1.1" id="Layer_1" xmlns="http://www.w3.org/2000/svg" xmlns:xlink="http://www.w3.org/1999/xlink" x="0px" y="0px"
	 viewBox="0 0 512 512" style="enable-background:new 0 0 512 512;" xml:space="preserve">
<path style="fill:#E21B1B;" d="M283.072,420.056v-16.144c26.28-14.88,35.528-48.248,20.648-74.536
	c-14.88-26.28-48.248-35.528-74.536-20.648c-26.28,14.88-35.528,48.248-20.648,74.536c4.88,8.624,12.024,15.76,20.648,20.648v16.144
	c-50.96,2.4-76.872,36.84-76.872,60v19.024h207.616v-19.016C359.928,456.904,334.032,422.44,283.072,420.056z"/>
<g>
	<path style="fill:#333333;" d="M464.064,412.648v-10.064c16.384-9.28,22.152-30.08,12.872-46.472
		c-9.28-16.384-30.08-22.152-46.472-12.872s-22.152,30.08-12.872,46.472c3.048,5.376,7.496,9.824,12.872,12.872v10.064
		c-31.776,1.488-47.936,22.968-47.936,37.416v11.856H512v-11.856C512,435.624,495.84,414.136,464.064,412.648z"/>
	<path style="fill:#333333;" d="M81.528,412.648v-10.064c16.384-9.28,22.152-30.08,12.872-46.472
		c-9.28-16.384-30.08-22.152-46.472-12.872s-22.152,30.08-12.872,46.472c3.048,5.376,7.496,9.824,12.872,12.872v10.064
		C16.16,414.136,0,435.624,0,450.064v11.856h129.472v-11.856C129.472,435.624,113.312,414.136,81.528,412.648z"/>
</g>
<path style="fill:#E21B1B;" d="M231.448,12.92H424.44c20.952,0,37.936,16.984,37.936,37.936v126.008
	c0,20.952-16.984,37.936-37.936,37.936H231.448c-20.952,0-37.936-16.984-37.936-37.936V50.856
	C193.512,29.904,210.496,12.92,231.448,12.92z"/>
<polygon style="fill:#333333;" points="254.192,214.8 254.192,272.64 332.272,214.8 "/>
<g>
</g>
<g>
</g>
<g>
</g>
<g>
</g>
<g>
</g>
<g>
</g>
<g>
</g>
<g>
</g>
<g>
</g>
<g>
</g>
<g>
</g>
<g>
</g>
<g>
</g>
<g>
</g>
<g>
</g>
</svg>
